<?xml version="1.0" encoding="UTF-8"?>
<svg xmlns="http://www.w3.org/2000/svg" xmlns:xlink="http://www.w3.org/1999/xlink" width="367px" height="470px" viewBox="0 0 367 470"> <!-- Generator: Sketch 53.1 (72631) - https://sketchapp.com --> <title>human</title> <desc>Created with Sketch.</desc> <g id="Templates-🖥📱" stroke="none" stroke-width="1" fill="none" fill-rule="evenodd"> <g id="human" transform="translate(0.000000, -41.000000)"> <g> <g id="book" transform="translate(291.755316, 93.402026) rotate(-14.000000) translate(-291.755316, -93.402026) translate(259.255316, 47.402026)"> <path d="M29.3425066,74.5316162 C29.3405066,74.5366162 29.3385066,74.5416162 29.3355066,74.5476162 C29.3385066,74.5426162 29.3425066,74.5226162 29.3425066,74.5316162" id="Fill-35" fill="#C5CFD6"/> <path d="M29.3378498,74.5392149 C29.3378498,74.5402149 29.3368498,74.5422149 29.3368498,74.5442149 C29.3368498,74.5392149 29.3458498,74.5242149 29.3378498,74.5392149" id="Fill-37" fill="#C5CFD6"/> <path d="M29.3725781,74.4546181 C29.3655781,74.4746181 29.3565781,74.4936181 29.3485781,74.5136181 C29.3525781,74.5036181 29.3565781,74.4956181 29.3605781,74.4856181 C29.2565781,74.7456181 29.3225781,74.5766181 29.3725781,74.4546181" id="Fill-39" fill="#C5CFD6"/> <path d="M29.3501941,74.5148423 C29.3461941,74.5238423 29.3421941,74.5338423 29.3381941,74.5428423 C29.3091941,74.5988423 29.3501941,74.5148423 29.3501941,74.5148423" id="Fill-41" fill="#C5CFD6"/> <polygon id="Fill-43" fill="#C5CFD6" points="29.3390066 74.5389673 29.3390066 74.5389673 29.3390066 74.5379673"/> <path d="M29.3385066,74.5394673 C29.3385066,74.5384673 29.3385066,74.5384673 29.3395066,74.5374673 C29.3385066,74.5384673 29.3385066,74.5384673 29.3385066,74.5394673" id="Fill-45" fill="#C5CFD6"/> <path d="M29.3337624,74.5466427 C29.3277624,74.5586427 29.3617624,74.5006427 29.3337624,74.5466427" id="Fill-47" fill="#C5CFD6"/> <path d="M29.3380066,74.5394673 L29.3400066,74.5374673 C29.3390066,74.5384673 29.3390066,74.5394673 29.3380066,74.5394673" id="Fill-49" fill="#C5CFD6"/> <rect id="Photo-Background" fill="#2F3676" x="4.29188508" y="0.339642892" width="60" height="88" rx="4"/> <rect id="Photo-Background" fill="#2026A2" x="0.168780282" y="0.342251036" width="60" height="88" rx="7"/> <rect id="Photo-Background" fill="#C5CFD6" x="2.83774556" y="2.03831245" width="60" height="88" rx="4"/> <rect id="Photo-Background" fill="#2026A2" x="0.413310321" y="3.49506011" width="60" height="88" rx="4"/> <g id="icons8-night_landscape" transform="translate(3.465691, 28.501492)" fill="#000000" fill-opacity="0.2"> <polygon id="Mountains" points="17.5869048 0 0.282731208 62 34.8910783 62"/> <polygon id="Mountains" points="35.428475 16.6071429 20.1305824 62 50.7263676 62"/> </g> <circle id="Sun" fill="#FFFFFF" cx="46.1494628" cy="25.7778469" r="5"/> </g> <g id="Humaaan-Copy"> <g id="Head/Front/Long" transform="translate(151.631052, 72.627017) rotate(-8.000000) translate(-151.631052, -72.627017) translate(71.164386, 11.274766)"> <path d="M113.647059,54.6237472 C117.683576,70.1165073 122.639734,102.475787 117.337355,107.65157 L83.0064725,107.65157 C83.0059621,107.64271 83.0054531,107.633853 83.0049456,107.625 L81.875,107.625 C70.0008779,107.625 60.375,97.9991221 60.375,86.125 L60.375,53.4326923 C60.375,41.5585702 70.0008779,31.9326923 81.875,31.9326923 L92.1470588,31.9326923 C104.021181,31.9326923 113.647059,41.5585702 113.647059,53.4326923 L113.647059,54.6237472 Z" id="Hair-Back" fill="#191847"/> <g id="Head" stroke-width="1" transform="translate(63.926471, 36.663462)" fill="#D4A181"> <path d="M9.78107423,40.7912076 C4.3261225,34.3943196 0.634097072,26.554845 1.25103669,17.7704887 C3.02861151,-7.5396878 38.2949517,-1.97177144 45.154985,10.8026322 C52.0150183,23.5770358 51.199868,55.9803701 42.3338862,58.2635123 C38.7981449,59.1740263 31.2659646,56.9436317 23.5999624,52.3274004 L28.4117647,86.3365385 L0,86.3365385 L9.78107423,40.7912076 Z"/> </g> <path d="M81.3878257,73.1788902 C82.6968711,87.2269166 82.1724283,103.269458 78.2711784,107.077564 L43.9402961,107.077564 C42.0274813,73.8750829 60.5138255,86.7325697 60.5138255,55.4715721 C61.6663773,54.3465378 62.7554455,53.2330109 63.8330881,52.2727046 L63.7949206,51.3533284 C69.7396962,39.1946992 77.2816549,33.1153846 86.4207967,33.1153846 C100.129509,33.1153846 104.456546,39.4881119 108.140718,44.8986495 C105.385773,54.3425529 94.6945551,55.7428745 85.1947392,61.6295174 C84.0749741,60.7206108 82.6471189,60.1758731 81.0919118,60.1758731 C77.4959695,60.1758731 74.5808824,63.0881747 74.5808824,66.6806808 C74.5808824,70.2731869 77.4959695,73.1854885 81.0919118,73.1854885 C81.1910832,73.1854885 81.2897368,73.1832735 81.3878257,73.1788902 Z" id="Hair-Front" fill="#191847"/> </g> <g id="Bottom/Standing/Jogging" transform="translate(0.000000, 228.525070)"> <polygon id="Leg" fill="#D4A181" points="153.833333 0 241.762589 146.577357 307.684233 270.496158 321.88317 270.496158 211.430531 6.00622125e-13"/> <g id="Accessories/Shoe/Flat-Simple" transform="translate(295.833333, 234.803347)" fill="#191847"> <path d="M0,43.475 L1.17138414,24.675 C8.02967359,26.6718245 16.6198239,25.8884912 26.9418351,22.325 C38.125215,30.2109647 52.2257286,35.5766278 69.243376,38.4219896 L69.2433775,38.4219807 C70.3328286,38.6041376 71.0683358,39.6349796 70.8861789,40.7244307 C70.8738822,40.7979751 70.8574823,40.8707743 70.8370559,40.9424873 L69.111664,47 L26.9418351,47 L2.34276827,47 L0,43.475 Z" id="Shoe"/> </g> <path d="M289.37595,250.653032 L316.758351,242.393618 C304.761375,206.632697 290.057378,167.279115 272.646359,124.332871 C255.235341,81.3866277 236.536554,39.9423373 216.55,2.84217094e-14 L139.212153,2.84217094e-14 C161.432904,50.5252226 184.989879,96.433873 209.883079,137.725951 C234.776279,179.018029 261.273903,216.66039 289.37595,250.653032 Z" id="Pant" fill="#191847"/> <path d="M148.054676,2.84217094e-14 C139.755806,51.5082897 123.749558,117.316093 122.238999,119.346941 C121.231961,120.70084 84.9783041,132.813975 13.4780298,155.686348 L16.5451716,168.17104 C101.809081,155.904439 146.73589,146.387505 151.325598,139.620238 C158.21016,129.469339 192.585708,49.2770068 205.9,2.84217094e-14 L148.054676,2.84217094e-14 Z" id="Leg" fill="#D4A181"/> <path d="M38.6115842,144.894287 L44.0140205,165.001786 C107.786457,170.578874 146.861237,166.549078 161.238361,152.912395 C175.615486,139.275713 192.001163,88.3049148 210.395395,-1.13686838e-13 L136.649139,-1.13686838e-13 C124.994987,72.3098432 118.479558,109.982508 117.102851,113.017996 C115.726144,116.053483 89.5623886,126.678913 38.6115842,144.894287 Z" id="Pant" fill="#2F3676"/> <g id="Accessories/Shoe/Flat-Simple" transform="translate(28.991667, 181.707113) rotate(80.000000) translate(-28.991667, -181.707113) translate(-7.100000, 158.108787)" fill="#191847"> <path d="M0,43.475 L1.17138414,24.675 C8.02967359,26.6718245 16.6198239,25.8884912 26.9418351,22.325 C38.125215,30.2109647 52.2257286,35.5766278 69.243376,38.4219896 L69.2433775,38.4219807 C70.3328286,38.6041376 71.0683358,39.6349796 70.8861789,40.7244307 C70.8738822,40.7979751 70.8574823,40.8707743 70.8370559,40.9424873 L69.111664,47 L26.9418351,47 L2.34276827,47 L0,43.475 Z" id="Shoe"/> </g> </g> <g id="Body/Pointing-Forward" transform="translate(171.908886, 216.920558) rotate(-8.000000) translate(-171.908886, -216.920558) translate(20.442219, 106.604491)"> <path d="M187.762992,50.4639113 L228.845273,27.9970621 C235.677004,19.8965263 242.408163,13.6053252 249.038749,9.12345895 C251.064842,8.27886697 254.607967,7.76765957 251.294472,13.6399628 C247.980977,19.5122661 244.760174,25.8378444 246.448269,27.6469739 C248.136364,29.4561035 252.345781,26.9288292 254.359652,29.9347134 C255.702234,31.9386361 248.510779,35.1042699 232.785288,39.4316147 L202.934004,66.722668 L187.762992,50.4639113 Z M252.105469,69.4198105 L270.151158,59.521335 C272.683224,49.9009854 275.71,45.0606622 279.231486,45.0003654 C281.93672,43.7435355 277.225574,55.8997457 282.353841,54.8455613 C287.482109,53.7913769 299.998745,44.4962685 302.155424,46.3835267 C305.346091,49.1756036 302.501096,57.7488978 299.149016,62.0136525 C292.883983,69.9844738 287.696806,72.7102541 274.875892,76.2796799 C268.172456,78.14596 260.924857,81.8867578 253.133093,87.5020731 L252.105469,69.4198105 Z" id="Skin" fill="#D4A181"/> <path d="M169.084632,41.061757 C183.320875,43.1628774 202.748014,43.1673805 225.000404,33.5531706 L230.141269,52.4950619 C214.003135,64.1081322 192.590963,72.3584249 175.517486,69.1612905 C162.062645,66.6417725 157.740704,49.2248958 169.084632,41.061757 Z" id="Sleeve" fill="#F8E71C" transform="translate(196.356756, 51.703989) rotate(-9.000000) translate(-196.356756, -51.703989) "/> <path d="M187.131223,74.1723677 C202.407619,77.9764874 228.02519,73.4903791 263.983937,60.7140428 C272.903192,79.1387041 277.02634,92.2740746 276.353381,100.120154 C245.506074,116.209422 219.067269,123.382804 197.285225,123.856357 C197.977429,136.761619 196.404266,149.041274 191.119538,160.261596 C180.255032,183.328677 116.637315,161.965988 95.2470884,166.170687 C81.8518999,122.733378 107.751902,105.080632 107.772742,77.2869095 C107.795563,46.8498221 132.271821,-1.42108547e-13 135.873012,-1.42108547e-13 L168.713891,1.61944075e-13 C170.525915,23.2452046 179.646333,48.8634341 187.131223,74.1723677 Z" id="Clothes" fill="#F8E71C"/> </g> </g> </g> </g> </g> </svg>