<?xml version="1.0" encoding="UTF-8"?>
<svg xmlns="http://www.w3.org/2000/svg" xmlns:xlink="http://www.w3.org/1999/xlink" width="845px" height="691px" viewBox="0 0 845 691"> <!-- Generator: Sketch 53.1 (72631) - https://sketchapp.com --> <title>language</title> <desc>Created with Sketch.</desc> <g id="language" stroke="none" stroke-width="1" fill="none" fill-rule="evenodd" opacity="0.900599888"> <g id="Group" transform="translate(70.000000, 57.000000)"> <g id="Group-2"> <g id="baseline-translate-24px"> <polygon id="Path" points="0 0 213 0 213 213 0 213"/> <path d="M114.211364,134.323 L91.6977273,111.984 L91.9636364,111.717 C107.386364,94.451 118.377273,74.604 124.847727,53.6 L150.818182,53.6 L150.818182,35.8 L88.7727273,35.8 L88.7727273,18 L71.0454545,18 L71.0454545,35.8 L9,35.8 L9,53.511 L108.006818,53.511 C102.068182,70.688 92.6727273,86.975 79.9090909,101.215 C71.6659091,92.048 64.8409091,81.991 59.4340909,71.4 L41.7068182,71.4 C48.1772727,85.907 57.0409091,99.613 68.1204545,111.984 L23.0045455,156.662 L35.5909091,169.3 L79.9090909,124.8 L107.475,152.479 L114.211364,134.323 Z M164.113636,89.2 L146.386364,89.2 L106.5,196 L124.227273,196 L134.154545,169.3 L176.256818,169.3 L186.272727,196 L204,196 L164.113636,89.2 Z M140.890909,151.5 L155.25,112.963 L169.609091,151.5 L140.890909,151.5 L140.890909,151.5 Z" id="Shape" fill="#EEF1F4"/> </g> <g id="baseline-language-24px" opacity="0.52515811" transform="translate(229.000000, 141.000000)"> <polygon id="Path" points="0 0 493 0 493 493 0 493"/> <path d="M278.795,42 C165.635,42 74,133.84 74,247 C74,360.16 165.635,452 278.795,452 C392.16,452 484,360.16 484,247 C484,133.84 392.16,42 278.795,42 Z M420.86,165 L360.385,165 C353.825,139.375 344.395,114.775 332.095,92.02 C369.815,104.935 401.18,131.175 420.86,165 Z M279,83.82 C296.015,108.42 309.34,135.685 318.155,165 L239.845,165 C248.66,135.685 261.985,108.42 279,83.82 Z M120.33,288 C117.05,274.88 115,261.145 115,247 C115,232.855 117.05,219.12 120.33,206 L189.62,206 C187.98,219.53 186.75,233.06 186.75,247 C186.75,260.94 187.98,274.47 189.62,288 L120.33,288 Z M137.14,329 L197.615,329 C204.175,354.625 213.605,379.225 225.905,401.98 C188.185,389.065 156.82,363.03 137.14,329 L137.14,329 Z M197.615,165 L137.14,165 C156.82,130.97 188.185,104.935 225.905,92.02 C213.605,114.775 204.175,139.375 197.615,165 L197.615,165 Z M279,410.18 C261.985,385.58 248.66,358.315 239.845,329 L318.155,329 C309.34,358.315 296.015,385.58 279,410.18 Z M326.97,288 L231.03,288 C229.185,274.47 227.75,260.94 227.75,247 C227.75,233.06 229.185,219.325 231.03,206 L326.97,206 C328.815,219.325 330.25,233.06 330.25,247 C330.25,260.94 328.815,274.47 326.97,288 Z M332.095,401.98 C344.395,379.225 353.825,354.625 360.385,329 L420.86,329 C401.18,362.825 369.815,389.065 332.095,401.98 L332.095,401.98 Z M368.38,288 C370.02,274.47 371.25,260.94 371.25,247 C371.25,233.06 370.02,219.53 368.38,206 L437.67,206 C440.95,219.12 443,232.855 443,247 C443,261.145 440.95,274.88 437.67,288 L368.38,288 Z" id="Shape" fill="#DDE3E9"/> </g> </g> </g> </g> </svg>